# Blender 4.3.0
# www.blender.org
mtllib industrial.mtl
o Cube
v 1.000000 -1.000000 -1.922104
v 1.000000 -1.000000 0.000000
v 1.000000 1.000000 -1.922104
v 1.000000 1.000000 0.000000
v -1.000000 -1.000000 -1.241732
v -1.000000 -1.000000 0.000000
v -1.000000 1.000000 -1.922104
v -1.000000 1.000000 0.000000
vn -0.1654 -0.1654 -0.9723
vn -0.0000 1.0000 -0.0000
vn -1.0000 -0.0000 -0.0000
vn -0.0000 -0.0000 1.0000
vn 1.0000 -0.0000 -0.0000
vn -0.0000 -1.0000 -0.0000
vt 0.625000 0.500000
vt 0.875000 0.500000
vt 0.875000 0.750000
vt 0.625000 0.750000
vt 0.375000 0.750000
vt 0.625000 1.000000
vt 0.375000 1.000000
vt 0.375000 0.000000
vt 0.625000 0.000000
vt 0.625000 0.250000
vt 0.375000 0.250000
vt 0.125000 0.500000
vt 0.375000 0.500000
vt 0.125000 0.750000
s 0
usemtl Material
f 1/1/1 5/2/1 7/3/1 3/4/1
f 4/5/2 3/4/2 7/6/2 8/7/2
f 8/8/3 7/9/3 5/10/3 6/11/3
f 6/12/4 2/13/4 4/5/4 8/14/4
f 2/13/5 1/1/5 3/4/5 4/5/5
f 6/11/6 5/10/6 1/1/6 2/13/6
o Cube.001
v 0.117819 -0.246740 -1.325447
v 0.117819 -0.246740 -1.984182
v 0.117819 -0.905474 -1.325447
v 0.117819 -0.905474 -1.984182
v 0.776553 -0.246740 -1.325447
v 0.776553 -0.246740 -1.984182
v 0.776553 -0.905474 -1.325447
v 0.776553 -0.905474 -1.984182
vn -1.0000 -0.0000 -0.0000
vn -0.0000 -1.0000 -0.0000
vn 1.0000 -0.0000 -0.0000
vn -0.0000 1.0000 -0.0000
vn -0.0000 -0.0000 1.0000
vn -0.0000 -0.0000 -1.0000
vt 0.375000 0.000000
vt 0.625000 0.000000
vt 0.625000 0.250000
vt 0.375000 0.250000
vt 0.625000 0.500000
vt 0.375000 0.500000
vt 0.625000 0.750000
vt 0.375000 0.750000
vt 0.625000 1.000000
vt 0.375000 1.000000
vt 0.125000 0.500000
vt 0.125000 0.750000
vt 0.875000 0.500000
vt 0.875000 0.750000
s 0
f 9/15/7 10/16/7 12/17/7 11/18/7
f 11/18/8 12/17/8 16/19/8 15/20/8
f 15/20/9 16/19/9 14/21/9 13/22/9
f 13/22/10 14/21/10 10/23/10 9/24/10
f 11/25/11 15/20/11 13/22/11 9/26/11
f 16/19/12 12/27/12 10/28/12 14/21/12
o Cube.002
v 0.304661 0.785192 -1.521698
v 0.304661 0.785192 -2.046678
v 0.304661 0.260213 -1.521698
v 0.304661 0.260213 -2.046678
v 0.829640 0.785192 -1.521698
v 0.829640 0.785192 -2.046678
v 0.829640 0.260213 -1.521698
v 0.829640 0.260213 -2.046678
vn -1.0000 -0.0000 -0.0000
vn -0.0000 -1.0000 -0.0000
vn 1.0000 -0.0000 -0.0000
vn -0.0000 1.0000 -0.0000
vn -0.0000 -0.0000 1.0000
vn -0.0000 -0.0000 -1.0000
vt 0.375000 0.000000
vt 0.625000 0.000000
vt 0.625000 0.250000
vt 0.375000 0.250000
vt 0.625000 0.500000
vt 0.375000 0.500000
vt 0.625000 0.750000
vt 0.375000 0.750000
vt 0.625000 1.000000
vt 0.375000 1.000000
vt 0.125000 0.500000
vt 0.125000 0.750000
vt 0.875000 0.500000
vt 0.875000 0.750000
s 0
f 17/29/13 18/30/13 20/31/13 19/32/13
f 19/32/14 20/31/14 24/33/14 23/34/14
f 23/34/15 24/33/15 22/35/15 21/36/15
f 21/36/16 22/35/16 18/37/16 17/38/16
f 19/39/17 23/34/17 21/36/17 17/40/17
f 24/33/18 20/41/18 18/42/18 22/35/18
o Cube.003
v -0.649441 0.648380 -1.766822
v -0.649441 0.648380 -2.295895
v -0.649441 0.174554 -1.731707
v -0.649441 0.174554 -2.293564
v -0.175614 0.648380 -1.788201
v -0.175614 0.648380 -2.297684
v -0.175614 0.174554 -1.766822
v -0.175614 0.174554 -2.295895
vn -1.0000 -0.0000 -0.0000
vn -0.0000 -1.0000 -0.0000
vn 1.0000 -0.0000 -0.0000
vn -0.0000 1.0000 -0.0000
vn 0.0594 0.0594 0.9965
vn -0.0043 -0.0043 -1.0000
vt 0.375000 0.000000
vt 0.625000 0.000000
vt 0.625000 0.250000
vt 0.375000 0.250000
vt 0.625000 0.500000
vt 0.375000 0.500000
vt 0.625000 0.750000
vt 0.375000 0.750000
vt 0.625000 1.000000
vt 0.375000 1.000000
vt 0.125000 0.500000
vt 0.125000 0.750000
vt 0.875000 0.500000
vt 0.875000 0.750000
s 0
f 25/43/19 26/44/19 28/45/19 27/46/19
f 27/46/20 28/45/20 32/47/20 31/48/20
f 31/48/21 32/47/21 30/49/21 29/50/21
f 29/50/22 30/49/22 26/51/22 25/52/22
f 27/53/23 31/48/23 29/50/23 25/54/23
f 32/47/24 28/55/24 26/56/24 30/49/24
o Cube.004
v -0.061309 -0.814356 -2.777816
v 0.060411 -0.936076 -1.516312
v -0.061309 -0.090064 -2.500336
v 0.052875 0.024120 -1.534078
v -0.785601 -0.814356 -3.024914
v -0.907321 -0.936076 -1.158128
v -0.785601 -0.090064 -2.300276
v -0.865720 -0.009945 -1.612303
vn 0.9942 0.0207 -0.1052
vn -0.0292 0.9928 -0.1160
vn -0.9962 0.0379 -0.0781
vn -0.0051 -0.9970 -0.0776
vn 0.0267 0.5687 -0.8221
vn 0.1384 0.2380 0.9614
vt 0.375000 0.000000
vt 0.625000 0.000000
vt 0.625000 0.250000
vt 0.375000 0.250000
vt 0.625000 0.500000
vt 0.375000 0.500000
vt 0.625000 0.750000
vt 0.375000 0.750000
vt 0.625000 1.000000
vt 0.375000 1.000000
vt 0.125000 0.500000
vt 0.125000 0.750000
vt 0.875000 0.500000
vt 0.875000 0.750000
s 0
f 33/57/25 35/60/25 36/59/25 34/58/25
f 35/60/26 39/62/26 40/61/26 36/59/26
f 39/62/27 37/64/27 38/63/27 40/61/27
f 37/64/28 33/66/28 34/65/28 38/63/28
f 35/67/29 33/68/29 37/64/29 39/62/29
f 40/61/30 38/63/30 34/70/30 36/69/30
o Sphere
v -0.432317 -0.829322 -3.186977
v -0.697273 -0.883096 -3.474668
v -0.477498 -0.522905 -3.882665
v 0.000051 -0.590340 -3.330273
v -0.158228 -0.607719 -3.795405
v -0.220670 -0.094096 -3.611535
v -0.185462 -0.161909 -3.191078
v -0.514688 -0.517634 -2.981535
v -0.720490 -0.105879 -3.202982
v -0.582893 -0.152859 -3.787602
v -0.863821 -0.434268 -3.663763
vn 0.4158 -0.8830 -0.2179
vn 0.9162 0.4006 -0.0121
vn 0.3282 0.3216 -0.8882
vn 0.3621 0.3529 -0.8628
vn 0.0997 0.9836 0.1503
vn 0.0314 0.4856 0.8736
vn -0.1092 0.9884 -0.1051
vn -0.7373 0.6371 -0.2247
vn -0.4754 0.0894 -0.8752
vn -0.9017 -0.1664 0.3991
vn -0.5124 -0.4879 -0.7067
vn -0.0158 -0.7453 -0.6665
vn 0.4031 -0.9093 -0.1032
vn 0.4774 -0.3921 0.7863
vn 0.5580 -0.0279 0.8294
vn 0.9194 0.2268 -0.3213
vn -0.8682 -0.1867 0.4598
vn -0.5579 -0.5544 0.6175
vt 0.840102 0.528293
vt 0.542058 0.417217
vt 0.736004 0.322570
vt 0.342613 0.616716
vt 0.366697 0.322621
vt 0.711840 0.898969
vt 0.181867 0.747026
vt 0.570291 0.725121
vt 0.145735 0.358096
vt 0.205237 0.171851
vt 0.019799 0.664190
vt 0.234438 0.919319
vt 0.972482 0.643411
vt 0.992171 0.399333
vt 0.741824 0.150965
s 0
f 42/71/31 44/72/31 41/73/31
f 44/72/32 46/74/32 47/75/32
f 43/76/33 50/77/33 45/78/33
f 45/78/34 50/77/34 46/74/34
f 46/74/35 49/79/35 47/75/35
f 47/75/36 49/79/36 48/80/36
f 46/74/37 50/77/37 49/79/37
f 49/79/38 50/77/38 51/81/38
f 50/77/39 43/82/39 51/81/39
f 51/83/40 42/71/40 49/84/40
f 43/76/41 42/71/41 51/83/41
f 42/71/42 43/76/42 45/78/42
f 42/71/43 45/78/43 44/72/43
f 41/73/44 44/72/44 48/80/44
f 48/80/45 44/72/45 47/75/45
f 44/72/46 45/78/46 46/74/46
f 48/85/47 49/84/47 42/71/47
f 42/71/48 41/73/48 48/85/48
o Sphere.001
v -0.240642 0.213879 -2.989570
v -0.081671 0.246142 -2.816959
v -0.213533 0.030033 -2.572166
v -0.500057 0.070492 -2.903594
v -0.405092 0.080920 -2.624521
v -0.367627 -0.227248 -2.734840
v -0.388752 -0.186561 -2.987110
v -0.191220 0.026870 -3.112833
v -0.067741 -0.220178 -2.979967
v -0.150298 -0.191991 -2.629202
v 0.018256 -0.023149 -2.703505
vn -0.4158 0.8830 0.2179
vn -0.9162 -0.4006 0.0121
vn -0.3282 -0.3216 0.8882
vn -0.3621 -0.3529 0.8628
vn -0.0997 -0.9836 -0.1503
vn -0.0314 -0.4856 -0.8736
vn 0.1092 -0.9884 0.1051
vn 0.7373 -0.6371 0.2247
vn 0.4754 -0.0894 0.8752
vn 0.9017 0.1664 -0.3991
vn 0.5124 0.4879 0.7067
vn 0.0158 0.7453 0.6665
vn -0.4031 0.9093 0.1032
vn -0.4774 0.3921 -0.7863
vn -0.5580 0.0279 -0.8294
vn -0.9194 -0.2268 0.3213
vn 0.8682 0.1867 -0.4598
vn 0.5579 0.5544 -0.6175
vt 0.840102 0.528293
vt 0.542058 0.417217
vt 0.736004 0.322570
vt 0.342613 0.616716
vt 0.366697 0.322621
vt 0.711840 0.898969
vt 0.181867 0.747026
vt 0.570291 0.725121
vt 0.145735 0.358096
vt 0.205237 0.171851
vt 0.019799 0.664190
vt 0.234438 0.919319
vt 0.972482 0.643411
vt 0.992171 0.399333
vt 0.741824 0.150965
s 0
f 53/86/49 52/88/49 55/87/49
f 55/87/50 58/90/50 57/89/50
f 54/91/51 56/93/51 61/92/51
f 56/93/52 57/89/52 61/92/52
f 57/89/53 58/90/53 60/94/53
f 58/90/54 59/95/54 60/94/54
f 57/89/55 60/94/55 61/92/55
f 60/94/56 62/96/56 61/92/56
f 61/92/57 62/96/57 54/97/57
f 62/98/58 60/99/58 53/86/58
f 54/91/59 62/98/59 53/86/59
f 53/86/60 56/93/60 54/91/60
f 53/86/61 55/87/61 56/93/61
f 52/88/62 59/95/62 55/87/62
f 59/95/63 58/90/63 55/87/63
f 55/87/64 57/89/64 56/93/64
f 59/100/65 53/86/65 60/99/65
f 53/86/66 59/100/66 52/88/66
o Sphere.002
v 0.550840 0.529725 -2.496838
v 0.620109 0.543783 -2.421625
v 0.562652 0.449616 -2.314960
v 0.437803 0.467246 -2.459375
v 0.479183 0.471790 -2.337773
v 0.495508 0.337510 -2.385843
v 0.486303 0.355239 -2.495766
v 0.572375 0.448238 -2.550548
v 0.626179 0.340591 -2.492654
v 0.590206 0.352873 -2.339813
v 0.663651 0.426443 -2.372189
vn -0.4158 0.8830 0.2179
vn -0.9162 -0.4006 0.0121
vn -0.3282 -0.3216 0.8882
vn -0.3621 -0.3529 0.8628
vn -0.0997 -0.9836 -0.1503
vn -0.0314 -0.4856 -0.8736
vn 0.1092 -0.9884 0.1051
vn 0.7373 -0.6371 0.2247
vn 0.4754 -0.0894 0.8752
vn 0.9017 0.1664 -0.3991
vn 0.5124 0.4879 0.7067
vn 0.0158 0.7453 0.6665
vn -0.4031 0.9093 0.1032
vn -0.4774 0.3921 -0.7863
vn -0.5580 0.0279 -0.8294
vn -0.9194 -0.2268 0.3213
vn 0.8682 0.1867 -0.4598
vn 0.5579 0.5544 -0.6175
vt 0.840102 0.528293
vt 0.542058 0.417217
vt 0.736004 0.322570
vt 0.342613 0.616716
vt 0.366697 0.322621
vt 0.711840 0.898969
vt 0.181867 0.747026
vt 0.570291 0.725121
vt 0.145735 0.358096
vt 0.205237 0.171851
vt 0.019799 0.664190
vt 0.234438 0.919319
vt 0.972482 0.643411
vt 0.992171 0.399333
vt 0.741824 0.150965
s 0
f 64/101/67 63/103/67 66/102/67
f 66/102/68 69/105/68 68/104/68
f 65/106/69 67/108/69 72/107/69
f 67/108/70 68/104/70 72/107/70
f 68/104/71 69/105/71 71/109/71
f 69/105/72 70/110/72 71/109/72
f 68/104/73 71/109/73 72/107/73
f 71/109/74 73/111/74 72/107/74
f 72/107/75 73/111/75 65/112/75
f 73/113/76 71/114/76 64/101/76
f 65/106/77 73/113/77 64/101/77
f 64/101/78 67/108/78 65/106/78
f 64/101/79 66/102/79 67/108/79
f 63/103/80 70/110/80 66/102/80
f 70/110/81 69/105/81 66/102/81
f 66/102/82 68/104/82 67/108/82
f 70/115/83 64/101/83 71/114/83
f 64/101/84 70/115/84 63/103/84
