# Blender 4.3.0
# www.blender.org
mtllib medium.mtl
o Cube
v -0.331220 -0.918416 -0.623130
v -0.331220 -0.918416 -2.547581
v -0.510469 -0.918416 -0.623130
v -0.510469 -0.918416 -2.547581
v -0.137361 -0.893995 -0.874576
v -0.137361 -0.893995 -0.620196
v 0.117019 -0.893995 -0.874576
v 0.117019 -0.893995 -0.620196
v -0.137361 -0.893995 -1.532846
v 0.117019 -0.893995 -1.532846
v -0.137361 -0.893995 -2.539520
v 0.117019 -0.893995 -2.539520
v 0.258743 -0.884295 -0.859377
v 0.258743 -0.884295 -0.604996
v 0.513124 -0.884295 -0.859377
v 0.513124 -0.884295 -0.604996
v 0.258743 -0.884295 -1.517647
v 0.513124 -0.884295 -1.517647
v 0.258743 -0.884295 -2.524321
v 0.513124 -0.884295 -2.524321
v 0.435307 -0.831188 0.088068
v -0.435307 -0.831188 0.088068
v 1.000000 1.000000 1.000000
v 1.000000 -1.000000 1.000000
v 0.765855 0.765855 -3.000000
v 0.765855 -0.765855 -3.000000
v -1.000000 1.000000 1.000000
v -1.000000 -1.000000 1.000000
v -0.765855 0.765855 -3.000000
v -0.765855 -0.765855 -3.000000
v 0.080150 -0.947485 -0.443185
v 0.080150 -0.947485 -2.796986
v -0.083164 -0.947485 -0.443185
v -0.083164 -0.947485 -2.796986
v -0.374587 -0.901640 -0.391281
v -0.374587 -0.901640 -2.745081
v -0.537900 -0.901640 -0.391281
v -0.537900 -0.901640 -2.745081
v 1.000000 -1.000000 -2.876168
v 1.000000 1.000000 -2.876168
v -1.000000 1.000000 -2.876168
v -1.000000 -1.000000 -2.876168
v 1.000000 -1.000000 -2.871264
v 1.000000 1.000000 -2.871264
v -1.000000 1.000000 -2.871264
v -1.000000 -1.000000 -2.871264
v 0.765855 -0.765855 -3.000000
v 0.765855 0.765855 -3.000000
v -0.765855 0.765855 -3.000000
v -0.765855 -0.765855 -3.000000
v 0.435307 -1.000000 0.088068
v -0.435307 -1.000000 0.088068
v -0.435307 -1.000000 1.000000
v -0.435307 -0.831188 1.000000
v 0.435307 -1.000000 1.000000
v 0.435307 -0.831188 1.000000
v 0.513124 -1.000000 -1.517647
v 0.258743 -1.000000 -2.524321
v 0.513124 -1.000000 -2.524321
v 0.258743 -1.000000 -1.517647
v 0.258743 -1.000000 -0.859377
v 0.513124 -1.000000 -0.859377
v 0.513124 -1.000000 -0.604996
v 0.258743 -1.000000 -0.604996
v 0.117019 -1.000000 -1.532846
v -0.137361 -1.000000 -2.539520
v 0.117019 -1.000000 -2.539520
v -0.137361 -1.000000 -1.532846
v -0.137361 -1.000000 -1.945150
v 0.080150 -0.947485 -2.539520
v -0.083164 -0.947485 -2.539520
v -0.137361 -1.000000 -0.874576
v 0.117019 -1.000000 -0.874576
v 0.117019 -1.000000 -0.620196
v -0.083164 -0.947485 -0.620196
v 0.080150 -0.947485 -0.620196
v -0.137361 -1.000000 -0.620196
v -0.331220 -1.000000 -2.547581
v -0.510469 -1.000000 -2.547581
v -0.510469 -1.000000 -2.347833
v -0.510469 -1.000000 -0.623130
v -0.331220 -1.000000 -2.154375
v -0.331220 -1.000000 -0.623130
vn -1.0000 -0.0000 -0.0000
vn -0.0000 -0.0000 1.0000
vn 1.0000 -0.0000 -0.0000
vn -0.0000 -0.0000 -1.0000
vn -0.0000 -1.0000 -0.0000
vn -0.0000 1.0000 -0.0000
vn 0.4818 -0.0000 -0.8763
vn -0.0000 0.4818 -0.8763
vn -0.0000 -0.4818 -0.8763
vn -0.4818 -0.0000 -0.8763
vt 0.375000 0.000000
vt 0.375000 0.250000
vt 0.488786 0.250000
vt 0.488786 0.198920
vt 0.488786 0.000000
vt 0.375000 0.500000
vt 0.488786 0.500000
vt 0.375000 0.750000
vt 0.488786 0.750000
vt 0.488786 0.525949
vt 0.375000 1.000000
vt 0.488786 1.000000
vt 0.125000 0.500000
vt 0.125000 0.750000
vt 0.625000 0.750000
vt 0.875000 0.750000
vt 0.625000 0.500000
vt 0.875000 0.500000
vt 0.625000 0.000000
vt 0.520821 0.000000
vt 0.520821 0.000000
vt 0.511287 0.000000
vt 0.423475 0.500000
vt 0.423475 0.250000
vt 0.375000 0.663455
vt 0.423475 0.663455
vt 0.125000 0.663455
vt 0.625000 0.250000
vt 0.404268 0.279268
vt 0.595732 0.279268
vt 0.595732 0.470732
vt 0.404268 0.470732
vt 0.625000 0.820587
vt 0.603898 0.820587
vt 0.603898 0.929413
vt 0.625000 0.929413
vt 0.625000 1.000000
vt 0.782343 0.522693
vt 0.782343 0.587620
vt 0.782343 0.630076
vt 0.782343 0.646483
vt 0.764628 0.645503
vt 0.764627 0.629096
vt 0.764627 0.586640
vt 0.764627 0.521713
vt 0.732830 0.521713
vt 0.732830 0.560048
vt 0.708597 0.546553
vt 0.708597 0.521193
vt 0.686191 0.521193
vt 0.686191 0.534076
vt 0.375000 0.527346
vt 0.125000 0.527346
vt 0.000000 0.000000
vt 0.375000 0.086545
vt 0.423475 0.086545
vt 0.511287 0.750000
vt 0.511287 0.250000
vt 0.511287 0.500000
vt 0.511287 1.000000
vt 0.814141 0.646483
vt 0.814140 0.630076
vt 0.814140 0.587620
vt 0.814141 0.522693
vt 0.520821 0.750000
vt 0.520821 0.250000
vt 0.572431 0.303264
vt 0.572431 0.463765
vt 0.520821 0.500000
vt 0.125000 0.731200
vt 0.375000 0.731200
vt 0.732830 0.586640
vt 0.732830 0.629096
vt 0.732830 0.645503
vt 0.804413 0.750000
vt 0.804413 0.691183
vt 0.695587 0.691183
vt 0.695587 0.750000
vt 0.686191 0.645313
vt 0.708597 0.645314
vt 0.572431 0.786235
vt 0.572431 0.946736
vt 0.520821 1.000000
s 0
f 1/1/1 2/2/1 78/3/1 82/4/1 83/5/1
f 2/2/2 4/6/2 79/7/2 78/3/2
f 4/6/3 3/8/3 81/9/3 80/10/3 79/7/3
f 3/8/4 1/11/4 83/12/4 81/9/4
f 2/13/5 1/14/5 3/8/5 4/6/5
f 7/15/5 5/16/5 9/16/5 10/15/5
f 8/17/5 6/18/5 5/16/5 7/15/5
f 5/19/3 72/20/3 68/20/3 9/19/3
f 9/19/3 68/20/3 69/21/3 66/20/3 11/19/3
f 10/15/5 9/16/5 11/16/5 12/15/5
f 15/15/5 13/16/5 17/16/5 18/15/5
f 16/17/5 14/18/5 13/16/5 15/15/5
f 13/19/3 61/22/3 60/22/3 17/19/3
f 17/19/3 60/22/3 58/22/3 19/19/3
f 18/15/5 17/16/5 19/16/5 20/15/5
f 21/2/2 22/6/2 52/23/2 51/24/2
f 22/6/3 54/25/3 53/26/3 52/23/3
f 21/13/5 56/27/5 54/25/5 22/6/5
f 23/1/3 24/19/3 39/28/3 40/2/3
f 25/29/4 26/30/4 30/31/4 29/32/4
f 41/6/1 42/17/1 28/15/1 27/8/1
f 27/8/2 28/15/2 53/33/2 54/34/2 56/35/2 55/36/2 24/37/2 23/11/2
f 40/13/6 41/6/6 27/8/6 23/14/6
f 42/17/5 58/38/5 60/39/5 61/40/5 64/41/5 74/42/5 73/43/5 65/44/5 67/45/5 66/46/5 69/47/5 82/48/5 78/49/5 79/50/5 80/51/5
f 32/13/6 34/6/6 71/52/6 70/53/6
f 36/13/6 38/6/6 37/8/6 35/14/6
f 43/54/1 44/54/1 40/54/1 39/54/1
f 44/2/5 45/6/5 41/6/5 40/2/5
f 46/17/6 43/28/6 39/28/6 42/17/6
f 45/54/3 46/54/3 42/54/3 41/54/3
f 47/30/7 48/29/7 44/2/7 43/28/7
f 48/29/8 49/32/8 45/6/8 44/2/8
f 50/31/9 47/30/9 43/28/9 46/17/9
f 49/32/10 50/31/10 46/17/10 45/6/10
f 26/30/5 25/29/5 48/29/5 47/30/5
f 25/29/5 29/32/5 49/32/5 48/29/5
f 30/31/5 26/30/5 47/30/5 50/31/5
f 29/32/5 30/31/5 50/31/5 49/32/5
f 56/55/1 21/2/1 51/24/1 55/56/1
f 62/57/1 15/15/1 18/15/1 57/57/1
f 64/58/4 14/28/4 16/17/4 63/59/4
f 63/59/1 16/17/1 15/15/1 62/57/1
f 59/57/2 20/15/2 19/37/2 58/60/2
f 61/22/3 13/19/3 14/28/3 64/58/3
f 57/57/1 18/15/1 20/15/1 59/57/1
f 24/16/5 63/61/5 62/62/5 57/63/5 59/64/5 58/38/5 42/17/5 39/18/5
f 73/65/1 7/15/1 10/15/1 65/65/1
f 77/66/4 75/67/4 76/68/4 74/69/4
f 75/67/4 77/66/4 6/28/4 8/17/4 74/69/4 76/68/4
f 74/69/1 8/17/1 7/15/1 73/65/1
f 76/70/6 75/71/6 33/8/6 31/14/6
f 68/72/5 72/73/5 77/74/5 74/42/5 64/41/5 63/61/5 24/16/5 55/75/5 51/76/5 52/77/5 53/78/5 28/15/5 42/17/5 80/51/5 81/79/5 83/80/5 82/48/5 69/47/5
f 72/20/3 5/19/3 6/28/3 77/66/3
f 67/65/2 70/81/2 71/82/2 66/83/2
f 70/81/2 67/65/2 12/15/2 11/37/2 66/83/2 71/82/2
f 65/65/1 10/15/1 12/15/1 67/65/1
